<svg t="1629793735113" class="icon" viewBox="0 0 1024 1024" version="1.1" xmlns="http://www.w3.org/2000/svg" p-id="1376" width="128" height="128"><path d="M960.512 610.1504l-71.0656-60.8256a390.4512 390.4512 0 0 0 0-125.44L960.512 363.008a34.816 34.816 0 0 0 10.0864-38.2976l-0.9728-2.816a481.2288 481.2288 0 0 0-86.528-149.76l-1.9968-2.2528a34.9184 34.9184 0 0 0-38.144-10.3424l-88.32 31.4368a379.7504 379.7504 0 0 0-108.3392-62.5152L629.2992 36.1472a34.9184 34.9184 0 0 0-28.0576-27.9552l-2.9184-0.512a490.0864 490.0864 0 0 0-172.6976 0l-2.9696 0.512a34.816 34.816 0 0 0-28.0576 27.9552l-17.152 92.7744c-39.0144 14.7968-75.3152 35.84-107.52 62.3104l-88.9856-31.6416a34.816 34.816 0 0 0-38.1952 10.3424l-1.9456 2.2528a484.9664 484.9664 0 0 0-86.528 149.76l-1.024 2.816a34.9184 34.9184 0 0 0 10.1376 38.2976l71.9872 61.44a382.2592 382.2592 0 0 0 0 123.9552l-71.7824 61.44a34.816 34.816 0 0 0-10.1376 38.2976l1.024 2.816a482.4576 482.4576 0 0 0 86.528 149.76l1.9456 2.304a34.9184 34.9184 0 0 0 38.1952 10.2912l88.9344-31.6416c32.4096 26.624 68.5568 47.7696 107.5712 62.3104l17.2032 92.7744a34.816 34.816 0 0 0 28.0576 27.9552l2.9184 0.512c57.088 10.2912 115.6096 10.2912 172.6976 0l2.9184-0.512a34.816 34.816 0 0 0 28.0576-27.9552l17.1008-92.3136a382.208 382.208 0 0 0 108.288-62.5152l88.32 31.4368a34.816 34.816 0 0 0 38.144-10.3424l1.9968-2.304a485.0688 485.0688 0 0 0 86.528-149.76l1.024-2.816a35.1232 35.1232 0 0 0-10.3424-38.0416z m-448.3584 56.7296a191.1808 191.1808 0 1 1 0-382.3104 191.1808 191.1808 0 0 1 0 382.3104z" p-id="1377"></path></svg>